<?xml version="1.0" encoding="UTF-8" standalone="no"?>
<!-- Created with Inkscape (http://www.inkscape.org/) -->

<svg
   xmlns:dc="http://purl.org/dc/elements/1.1/"
   xmlns:cc="http://creativecommons.org/ns#"
   xmlns:rdf="http://www.w3.org/1999/02/22-rdf-syntax-ns#"
   xmlns:svg="http://www.w3.org/2000/svg"
   xmlns="http://www.w3.org/2000/svg"
   xmlns:sodipodi="http://sodipodi.sourceforge.net/DTD/sodipodi-0.dtd"
   xmlns:inkscape="http://www.inkscape.org/namespaces/inkscape"
   width="307.02332mm"
   height="306.6571mm"
   viewBox="0 0 307.02332 306.6571"
   version="1.1"
   id="svg8"
   inkscape:version="0.92.2 (5c3e80d, 2017-08-06)"
   sodipodi:docname="drawing.svg">
  <defs
     id="defs2" />
  <sodipodi:namedview
     id="base"
     pagecolor="#ffffff"
     bordercolor="#666666"
     borderopacity="1.0"
     inkscape:pageopacity="0.0"
     inkscape:pageshadow="2"
     inkscape:zoom="0.49497475"
     inkscape:cx="342.60202"
     inkscape:cy="664.79125"
     inkscape:document-units="mm"
     inkscape:current-layer="g927"
     showgrid="true"
     inkscape:snap-bbox="false"
     inkscape:bbox-nodes="true"
     inkscape:snap-bbox-edge-midpoints="false"
     inkscape:bbox-paths="true"
     inkscape:window-width="1920"
     inkscape:window-height="1057"
     inkscape:window-x="-8"
     inkscape:window-y="-8"
     inkscape:window-maximized="1"
     inkscape:snap-intersection-paths="true"
     fit-margin-top="0"
     fit-margin-left="0"
     fit-margin-right="0"
     fit-margin-bottom="0">
    <inkscape:grid
       type="xygrid"
       id="grid815"
       originx="90.018461"
       originy="-53.152282" />
  </sodipodi:namedview>
  <metadata
     id="metadata5">
    <rdf:RDF>
      <cc:Work
         rdf:about="">
        <dc:format>image/svg+xml</dc:format>
        <dc:type
           rdf:resource="http://purl.org/dc/dcmitype/StillImage" />
        <dc:title></dc:title>
      </cc:Work>
    </rdf:RDF>
  </metadata>
  <g
     inkscape:label="Layer 1"
     inkscape:groupmode="layer"
     id="layer1"
     transform="translate(90.018455,62.809401)">
    <g
       id="g927">
      <path
         inkscape:connector-curvature="0"
         id="path830-9"
         d="M -13.821431,73.01166 A 79.374999,79.374999 0 0 1 -5.254401,50.96144 79.374999,79.374999 0 0 1 63.499932,11.37292 L 63.5,11.25 l 131.16025,4.2e-4 a 153.4585,153.4585 0 0 0 -123.933839,-73.888967 153.4585,153.4585 0 0 0 -83.969052,20.388917 153.4585,153.4585 0 0 0 -44.58382,39.0423 z"
         style="fill:#b56a55;fill-opacity:1;stroke:none;stroke-width:5.80000544;stroke-linecap:butt;stroke-linejoin:round;stroke-miterlimit:4;stroke-dasharray:none;stroke-opacity:1" />
      <circle
         r="58.208332"
         cy="90.625"
         cx="63.5"
         id="path828"
         style="fill:#7b94d9;fill-opacity:1;stroke:none;stroke-width:6.11111116;stroke-linecap:butt;stroke-linejoin:round;stroke-miterlimit:4;stroke-dasharray:none;stroke-opacity:1" />
      <path
         id="path830-9-1"
         d="m 86.749733,166.45542 a 79.375,79.375 0 0 1 -23.37956,3.60585 79.375,79.375 0 0 1 -68.6618397,-39.74875 l -0.10649,0.0615 L -70.97791,16.785679 a 153.4585,153.4585 0 0 0 -2.0228,144.274361 153.4585,153.4585 0 0 0 59.641853,62.52487 153.4585,153.4585 0 0 0 56.10353,19.08957 z"
         style="fill:#adc9b2;fill-opacity:1;stroke:none;stroke-width:5.80000544;stroke-linecap:butt;stroke-linejoin:round;stroke-miterlimit:4;stroke-dasharray:none;stroke-opacity:1"
         inkscape:connector-curvature="0" />
      <path
         id="path830-9-1-5"
         d="m 117.47501,32.416667 a 79.375,79.375 0 0 1 14.81253,18.44437 79.375,79.375 0 0 1 -0.0925,79.337273 l 0.10645,0.0615 -65.580502,113.5879 a 153.4585,153.4585 0 0 0 125.956662,-70.38538 153.4585,153.4585 0 0 0 24.3272,-82.913793 153.4585,153.4585 0 0 0 -11.51971,-58.13187 z"
         style="fill:#dfbc62;fill-opacity:1;stroke:none;stroke-width:5.80000544;stroke-linecap:butt;stroke-linejoin:round;stroke-miterlimit:4;stroke-dasharray:none;stroke-opacity:1"
         inkscape:connector-curvature="0" />
    </g>
  </g>
</svg>
