<?xml version="1.0" encoding="UTF-8" standalone="no"?>
<svg
   xmlns:dc="http://purl.org/dc/elements/1.1/"
   xmlns:cc="http://creativecommons.org/ns#"
   xmlns:rdf="http://www.w3.org/1999/02/22-rdf-syntax-ns#"
   xmlns:svg="http://www.w3.org/2000/svg"
   xmlns="http://www.w3.org/2000/svg"
   xmlns:sodipodi="http://sodipodi.sourceforge.net/DTD/sodipodi-0.dtd"
   xmlns:inkscape="http://www.inkscape.org/namespaces/inkscape"
   width="500"
   height="500"
   viewBox="0 0 500 500"
   version="1.1"
   id="svg11"
   sodipodi:docname="flame.svg"
   inkscape:version="0.92.2 (5c3e80d, 2017-08-06)">
  <metadata
     id="metadata15">
    <rdf:RDF>
      <cc:Work
         rdf:about="">
        <dc:format>image/svg+xml</dc:format>
        <dc:type
           rdf:resource="http://purl.org/dc/dcmitype/StillImage" />
        <dc:title>flame</dc:title>
      </cc:Work>
    </rdf:RDF>
  </metadata>
  <sodipodi:namedview
     pagecolor="#ffffff"
     bordercolor="#666666"
     borderopacity="1"
     objecttolerance="10"
     gridtolerance="10"
     guidetolerance="10"
     inkscape:pageopacity="0"
     inkscape:pageshadow="2"
     inkscape:window-width="1920"
     inkscape:window-height="1057"
     id="namedview13"
     showgrid="true"
     fit-margin-top="0"
     fit-margin-left="0"
     fit-margin-right="0"
     fit-margin-bottom="0"
     inkscape:zoom="0.65186407"
     inkscape:cx="41.443944"
     inkscape:cy="407.62839"
     inkscape:window-x="-8"
     inkscape:window-y="-8"
     inkscape:window-maximized="1"
     inkscape:current-layer="Octicons"
     inkscape:snap-bbox="true"
     inkscape:bbox-nodes="true"
     inkscape:snap-nodes="false"
     inkscape:snap-others="false">
    <inkscape:grid
       type="xygrid"
       id="grid4514"
       originx="20"
       originy="480" />
  </sodipodi:namedview>
  <!-- Generator: Sketch 40.3 (33839) - http://www.bohemiancoding.com/sketch -->
  <title
     id="title2">flame</title>
  <desc
     id="desc4">Created with Sketch.</desc>
  <defs
     id="defs6" />
  <g
     id="Octicons"
     style="fill:none;fill-rule:evenodd;stroke:none;stroke-width:1"
     transform="translate(20,4.0000004)">
    <g
       id="g826"
       transform="matrix(31.25,0,0,31.25,73.75,27.249994)">
      <rect
         y="-0.99999982"
         x="-3"
         height="16"
         width="16"
         id="rect4516"
         style="fill:#000000;fill-opacity:0;stroke:none;stroke-width:18.89763832;stroke-linecap:butt;stroke-linejoin:round;stroke-miterlimit:4;stroke-dasharray:none;stroke-opacity:1" />
      <path
         inkscape:connector-curvature="0"
         id="path4518"
         transform="translate(-3,-0.99999982)"
         d="m 6.5625,7.3457031 a 4.3220339,4.2881355 0 0 0 -3.3769531,4.1796879 4.3220339,4.2881355 0 0 0 4.3222656,4.289062 4.3220339,4.2881355 0 0 0 4.3222655,-4.289062 4.3220339,4.2881355 0 0 0 -0.01172,-0.326172 z"
         style="fill:#dfc459;fill-opacity:1;stroke:none;stroke-width:18.89763832;stroke-linecap:butt;stroke-linejoin:round;stroke-miterlimit:4;stroke-dasharray:none;stroke-opacity:1" />
      <g
         transform="translate(-0.99499009,-0.98999982)"
         style="fill:#b56a55;fill-opacity:1"
         id="flame">
        <path
           style="fill:#b56a55;fill-opacity:1"
           inkscape:connector-curvature="0"
           id="Shape"
           d="M 5.05,0.31 C 5.86,2.48 5.46,3.69 4.53,4.62 3.55,5.67 1.98,6.45 0.9,7.98 c -1.45,2.05 -1.7,6.53 3.53,7.7 -2.2,-1.16 -2.67,-4.52 -0.3,-6.61 -0.61,2.03 0.53,3.33 1.94,2.86 1.39,-0.47 2.3,0.53 2.27,1.67 -0.02,0.78 -0.31,1.44 -1.13,1.81 3.42,-0.59 4.78,-3.42 4.78,-5.56 C 11.99,7.01 9.46,6.63 10.74,4.24 9.22,4.37 8.71,5.37 8.85,6.99 8.94,8.07 7.83,8.79 6.99,8.32 6.32,7.91 6.33,7.13 6.93,6.54 8.18,5.31 8.68,2.45 5.05,0.32 L 5.03,0.3 Z" />
      </g>
    </g>
  </g>
</svg>
