<?xml version="1.0" encoding="UTF-8" standalone="no"?>
<!-- Created with Inkscape (http://www.inkscape.org/) -->

<svg
   xmlns:dc="http://purl.org/dc/elements/1.1/"
   xmlns:cc="http://creativecommons.org/ns#"
   xmlns:rdf="http://www.w3.org/1999/02/22-rdf-syntax-ns#"
   xmlns:svg="http://www.w3.org/2000/svg"
   xmlns="http://www.w3.org/2000/svg"
   xmlns:sodipodi="http://sodipodi.sourceforge.net/DTD/sodipodi-0.dtd"
   xmlns:inkscape="http://www.inkscape.org/namespaces/inkscape"
   width="179.91667mm"
   height="179.91669mm"
   viewBox="0 0 179.91667 179.91669"
   version="1.1"
   id="svg8"
   inkscape:version="0.92.2 (5c3e80d, 2017-08-06)"
   sodipodi:docname="drawing.svg">
  <defs
     id="defs2" />
  <sodipodi:namedview
     id="base"
     pagecolor="#ffffff"
     bordercolor="#666666"
     borderopacity="1.0"
     inkscape:pageopacity="0.0"
     inkscape:pageshadow="2"
     inkscape:zoom="0.7"
     inkscape:cx="712.42031"
     inkscape:cy="232.10273"
     inkscape:document-units="mm"
     inkscape:current-layer="layer1"
     showgrid="true"
     inkscape:snap-bbox="true"
     inkscape:bbox-nodes="true"
     inkscape:snap-bbox-edge-midpoints="true"
     inkscape:snap-bbox-midpoints="false"
     inkscape:window-width="1920"
     inkscape:window-height="1017"
     inkscape:window-x="-8"
     inkscape:window-y="-8"
     inkscape:window-maximized="1"
     fit-margin-top="0"
     fit-margin-left="0"
     fit-margin-right="0"
     fit-margin-bottom="0">
    <inkscape:grid
       type="xygrid"
       id="grid815"
       originx="-21.166665"
       originy="-74.083327" />
  </sodipodi:namedview>
  <metadata
     id="metadata5">
    <rdf:RDF>
      <cc:Work
         rdf:about="">
        <dc:format>image/svg+xml</dc:format>
        <dc:type
           rdf:resource="http://purl.org/dc/dcmitype/StillImage" />
        <dc:title></dc:title>
      </cc:Work>
    </rdf:RDF>
  </metadata>
  <g
     inkscape:label="Layer 1"
     inkscape:groupmode="layer"
     id="layer1"
     transform="translate(-21.166664,-42.999992)">
    <g
       id="g1055">
      <circle
         style="fill:#adc9b2;fill-opacity:1;stroke:none;stroke-width:0.96499997;stroke-linecap:round;stroke-miterlimit:4;stroke-dasharray:none;stroke-opacity:1"
         id="circle827-87"
         cx="111.125"
         cy="132.95834"
         r="89.958336" />
      <circle
         r="89.958336"
         cy="132.95833"
         cx="111.125"
         id="path819"
         style="fill:#ff0000;fill-opacity:0;stroke:none;stroke-width:0.96499997;stroke-linecap:round;stroke-miterlimit:4;stroke-dasharray:none;stroke-opacity:1" />
      <path
         inkscape:connector-curvature="0"
         id="circle827-7"
         d="M 111.125,64.166669 C 67.360139,72.736983 61.69885,104.93454 69.258313,138.56574 55.81045,121.63398 39.776433,111.63035 22.146452,120.46763 a 89.958335,89.958335 0 0 0 -0.979784,12.4907 89.958335,89.958335 0 0 0 89.958332,89.95834 89.958335,89.958335 0 0 0 89.95833,-89.95834 89.958335,89.958335 0 0 0 -0.96843,-12.48502 c -17.63445,-8.84729 -33.67246,1.15703 -47.12321,18.09243 7.55946,-33.6312 1.89817,-65.828757 -41.86669,-74.399071 z"
         style="fill:#b56a55;fill-opacity:1;stroke:none;stroke-width:0.96499997;stroke-linecap:round;stroke-miterlimit:4;stroke-dasharray:none;stroke-opacity:1" />
      <path
         id="circle827-4"
         transform="scale(0.26458333)"
         d="m 530.52539,632.98438 a 19.999999,30.000002 13.007179 0 0 -22.23437,25.04101 19.999999,30.000002 13.007179 0 0 -0.7129,4.01758 l -31.20703,175.70117 a 340.00001,340.00001 0 0 0 23.59766,-5.15039 l 46.17383,-161.63672 a 19.999999,30.000002 13.007179 0 0 1.12304,-3.92969 19.999999,30.000002 13.007179 0 0 -12.73437,-33.73046 19.999999,30.000002 13.007179 0 0 -4.00586,-0.3125 z"
         style="fill:#ffffff;fill-opacity:1;stroke:none;stroke-width:3.64724398;stroke-linecap:round;stroke-miterlimit:4;stroke-dasharray:none;stroke-opacity:1"
         inkscape:connector-curvature="0" />
      <path
         id="circle827"
         transform="scale(0.26458333)"
         d="m 420,582.51953 a 19.999999,35.714289 0 0 0 -20,35.71485 19.999999,35.714289 0 0 0 0.21094,4.875 L 409.64062,842 A 340.00001,340.00001 0 0 0 420,842.51953 a 340.00001,340.00001 0 0 0 10.35547,-0.36719 l 9.43555,-219.05468 A 19.999999,35.714289 0 0 0 440,618.23438 19.999999,35.714289 0 0 0 420,582.51953 Z"
         style="fill:#ffffff;fill-opacity:1;stroke:none;stroke-width:3.64724398;stroke-linecap:round;stroke-miterlimit:4;stroke-dasharray:none;stroke-opacity:1"
         inkscape:connector-curvature="0" />
      <path
         id="circle827-8"
         transform="scale(0.26458333)"
         d="m 309.47461,632.98438 a 30.000002,19.999999 76.992821 0 0 -4.00586,0.3125 30.000002,19.999999 76.992821 0 0 -12.73437,33.73046 30.000002,19.999999 76.992821 0 0 1.12304,3.92969 l 46.16602,161.61133 a 340.00001,340.00001 0 0 0 23.54883,4.85352 L 332.42188,662.04297 a 30.000002,19.999999 76.992821 0 0 -0.7129,-4.01758 30.000002,19.999999 76.992821 0 0 -22.23437,-25.04101 z"
         style="fill:#ffffff;fill-opacity:1;stroke:none;stroke-width:3.64724398;stroke-linecap:round;stroke-miterlimit:4;stroke-dasharray:none;stroke-opacity:1"
         inkscape:connector-curvature="0" />
    </g>
  </g>
</svg>
