<?xml version="1.0" encoding="UTF-8" standalone="no"?>
<!-- Created with Inkscape (http://www.inkscape.org/) -->

<svg
   xmlns:dc="http://purl.org/dc/elements/1.1/"
   xmlns:cc="http://creativecommons.org/ns#"
   xmlns:rdf="http://www.w3.org/1999/02/22-rdf-syntax-ns#"
   xmlns:svg="http://www.w3.org/2000/svg"
   xmlns="http://www.w3.org/2000/svg"
   xmlns:sodipodi="http://sodipodi.sourceforge.net/DTD/sodipodi-0.dtd"
   xmlns:inkscape="http://www.inkscape.org/namespaces/inkscape"
   width="136.30745mm"
   height="136.30745mm"
   viewBox="0 0 136.30745 136.30745"
   version="1.1"
   id="svg8"
   inkscape:version="0.92.2 (5c3e80d, 2017-08-06)"
   sodipodi:docname="tomato.svg">
  <defs
     id="defs2">
    <inkscape:path-effect
       effect="spiro"
       id="path-effect986"
       is_visible="true" />
    <inkscape:path-effect
       effect="spiro"
       id="path-effect904"
       is_visible="true" />
    <inkscape:path-effect
       effect="spiro"
       id="path-effect844"
       is_visible="true" />
    <inkscape:path-effect
       effect="spiro"
       id="path-effect844-2"
       is_visible="true" />
    <inkscape:path-effect
       effect="spiro"
       id="path-effect844-7"
       is_visible="true" />
    <inkscape:path-effect
       effect="spiro"
       id="path-effect844-7-3"
       is_visible="true" />
    <inkscape:path-effect
       effect="spiro"
       id="path-effect844-7-4"
       is_visible="true" />
    <inkscape:path-effect
       effect="spiro"
       id="path-effect986-6"
       is_visible="true" />
  </defs>
  <sodipodi:namedview
     id="base"
     pagecolor="#ffffff"
     bordercolor="#666666"
     borderopacity="1.0"
     inkscape:pageopacity="0.0"
     inkscape:pageshadow="2"
     inkscape:zoom="0.98994949"
     inkscape:cx="157.35145"
     inkscape:cy="237.29819"
     inkscape:document-units="mm"
     inkscape:current-layer="layer1"
     showgrid="true"
     inkscape:window-width="1920"
     inkscape:window-height="1017"
     inkscape:window-x="-8"
     inkscape:window-y="-8"
     inkscape:window-maximized="1"
     inkscape:snap-bbox="true"
     inkscape:bbox-nodes="true"
     inkscape:snap-bbox-edge-midpoints="true"
     inkscape:snap-global="false"
     fit-margin-top="0"
     fit-margin-left="0"
     fit-margin-right="0"
     fit-margin-bottom="0">
    <inkscape:grid
       type="xygrid"
       id="grid815"
       originx="-24.054262"
       originy="-67.35192" />
  </sodipodi:namedview>
  <metadata
     id="metadata5">
    <rdf:RDF>
      <cc:Work
         rdf:about="">
        <dc:format>image/svg+xml</dc:format>
        <dc:type
           rdf:resource="http://purl.org/dc/dcmitype/StillImage" />
        <dc:title></dc:title>
      </cc:Work>
    </rdf:RDF>
  </metadata>
  <g
     inkscape:label="Layer 1"
     inkscape:groupmode="layer"
     id="layer1"
     transform="translate(-24.054256,-93.340622)">
    <g
       id="g1049"
       transform="translate(-25.657873,-11.001027)">
      <path
         inkscape:original-d="m 116.41667,140.89583 c 0,0 -19.402517,-3.52804 -29.104171,-5.29166 -9.701654,-1.76363 -19.402512,14.11084 -29.104166,21.16666 -9.701655,7.05582 8.819708,44.09696 13.229166,66.14584 4.409459,22.04887 44.979171,15.87499 44.979171,15.87499 0,0 33.51415,-10.58359 50.27083,-15.87499 16.75668,-5.29141 10.5836,-31.75027 15.875,-47.625 5.2914,-15.87474 -21.1664,-26.4586 -31.75,-39.6875 -10.5836,-13.22891 -34.39583,5.29166 -34.39583,5.29166 z"
         inkscape:path-effect="#path-effect904"
         inkscape:connector-curvature="0"
         id="path902"
         d="m 116.41667,140.89583 c -8.59651,-5.28413 -19.19782,-7.21164 -29.104171,-5.29166 -12.144557,2.35377 -22.927413,10.44853 -29.104166,21.16666 -6.076712,10.54453 -7.759118,23.42016 -5.175527,35.31295 2.583591,11.8928 9.305042,22.75143 18.404693,30.83289 12.189911,10.82594 28.694441,16.65106 44.979171,15.87499 17.98873,3.23875 37.40457,-2.89256 50.27083,-15.87499 12.20359,-12.31378 18.2508,-30.45199 15.875,-47.625 -1.22626,-8.8638 -4.61913,-17.47128 -10.10183,-24.5431 -5.4827,-7.07183 -13.0826,-12.55564 -21.64817,-15.1444 -11.48123,-3.46996 -24.48852,-1.46884 -34.39583,5.29166 z"
         style="fill:#b56a55;fill-opacity:1;stroke:none;stroke-width:0.26458332px;stroke-linecap:butt;stroke-linejoin:miter;stroke-opacity:1" />
      <g
         id="g1036">
        <path
           style="fill:#adc9b2;fill-opacity:1;stroke:#adc9b2;stroke-width:2;stroke-linecap:round;stroke-linejoin:round;stroke-miterlimit:4;stroke-dasharray:none;stroke-opacity:1"
           d="m 68.791667,135.60417 c 8.931001,-3.22869 19.248758,-2.37734 27.529752,2.27157 4.353371,2.44396 8.121731,5.84994 12.549931,8.15555 1.7437,0.90788 3.63608,1.6501 5.60197,1.65038 0.98295,1.3e-4 1.97258,-0.1904 2.85859,-0.61604 0.88601,-0.42565 1.66462,-1.09249 2.16684,-1.93745 0.57842,-0.97317 0.77026,-2.15298 0.6195,-3.27499 -0.15076,-1.12201 -0.63118,-2.18615 -1.29991,-3.09962 -1.33748,-1.82693 -3.36031,-3.01951 -5.39264,-4.01759 -13.874965,-6.81403 -31.034547,-6.48025 -44.634033,0.86819 z"
           id="path842"
           inkscape:connector-curvature="0"
           inkscape:path-effect="#path-effect844"
           inkscape:original-d="m 68.791667,135.60417 c 0,0 15.067306,9.77159 27.529752,2.27157 65.956761,-39.69349 5.255531,5.64652 12.549931,8.15555 4.43158,1.76423 3.72577,0.56137 10.6274,-0.90311 6.90162,-1.46449 3.69107,-7.64187 -6.07305,-10.3922 -13.536063,-3.81277 -44.634033,0.86819 -44.634033,0.86819 z"
           sodipodi:nodetypes="csccsc" />
        <path
           style="fill:#adc9b2;fill-opacity:1;stroke:#adc9b2;stroke-width:2;stroke-linecap:round;stroke-linejoin:round;stroke-miterlimit:4;stroke-dasharray:none;stroke-opacity:1"
           d="m 164.04167,125.02068 c -9.40672,-1.30419 -19.32293,1.67067 -26.45834,7.9375 -3.75113,3.29451 -6.73028,7.40863 -10.58333,10.58334 -1.51723,1.25011 -3.21428,2.36903 -5.13728,2.77744 -0.96151,0.2042 -1.96913,0.22328 -2.9242,-0.009 -0.95507,-0.23243 -1.85516,-0.72309 -2.52186,-1.44538 -0.76786,-0.83188 -1.20046,-1.94616 -1.28592,-3.07502 -0.0855,-1.12886 0.16356,-2.26956 0.62808,-3.30196 0.92905,-2.06479 2.66022,-3.65135 4.44106,-5.04961 12.15801,-9.54612 29.01301,-12.78211 43.84179,-8.41716 z"
           id="path842-9"
           inkscape:connector-curvature="0"
           inkscape:path-effect="#path-effect844-2"
           inkscape:original-d="m 164.04167,125.02068 c 0,0 -12.71035,12.6868 -26.45834,7.9375 -72.760421,-25.13541 -3.96875,6.61459 -10.58333,10.58334 -3.96875,2.64583 -3.52804,1.32264 -10.58334,1.32291 -7.05529,2.6e-4 -5.19717,-6.70907 3.78322,-11.42659 12.44957,-6.53991 43.84179,-8.41716 43.84179,-8.41716 z"
           sodipodi:nodetypes="csccsc" />
        <path
           style="fill:#adc9b2;fill-opacity:1;stroke:#adc9b2;stroke-width:2;stroke-linecap:round;stroke-linejoin:round;stroke-miterlimit:4;stroke-dasharray:none;stroke-opacity:1"
           d="m 89.958333,106.5 c 8.870118,3.39238 16.123667,10.77934 19.353847,19.7098 1.69813,4.6948 2.32477,9.7355 4.16995,14.37448 0.72658,1.8267 1.67395,3.62515 3.16183,4.91005 0.74394,0.64245 1.61754,1.14494 2.56634,1.40175 0.94881,0.25681 1.97394,0.26087 2.90626,-0.0505 1.07378,-0.35864 1.98999,-1.12631 2.60909,-2.07412 0.6191,-0.94781 0.95086,-2.06725 1.04161,-3.19569 0.1815,-2.2569 -0.57033,-4.48151 -1.45644,-6.56509 C 118.26123,120.78575 105.0544,109.82482 89.958333,106.5 Z"
           id="path842-0"
           inkscape:connector-curvature="0"
           inkscape:path-effect="#path-effect844-7"
           inkscape:original-d="m 89.958333,106.5 c 0,0 5.01937,17.24279 19.353847,19.7098 75.86432,13.05653 0.28816,7.70849 4.16995,14.37448 2.20151,4.2314 2.45331,2.85966 8.63443,6.26128 6.18112,3.4016 7.78778,-3.37234 2.19426,-11.8349 C 116.55649,123.27897 89.958333,106.5 89.958333,106.5 Z"
           sodipodi:nodetypes="csccsc" />
        <path
           style="fill:#adc9b2;fill-opacity:1;stroke:#adc9b2;stroke-width:2;stroke-linecap:round;stroke-linejoin:round;stroke-miterlimit:4;stroke-dasharray:none;stroke-opacity:1"
           d="m 161.39583,162.0625 c -5.75934,-7.55099 -14.89411,-12.42307 -24.37329,-12.99964 -4.98326,-0.30311 -9.99575,0.51935 -14.96699,0.0594 -1.95754,-0.18111 -3.95033,-0.58201 -5.60312,-1.64645 -0.8264,-0.53222 -1.55515,-1.22834 -2.06946,-2.06599 -0.51432,-0.83766 -0.80772,-1.81991 -0.77231,-2.80222 0.0408,-1.13135 0.51846,-2.22707 1.25284,-3.08864 0.73438,-0.86158 1.71455,-1.49598 2.77144,-1.90172 2.11376,-0.81149 4.46013,-0.71854 6.70915,-0.45694 15.35435,1.78598 29.59891,11.35965 37.05174,24.90222 z"
           id="path842-0-6"
           inkscape:connector-curvature="0"
           inkscape:path-effect="#path-effect844-7-3"
           inkscape:original-d="m 161.39583,162.0625 c 0,0 -17.95843,0.0546 -24.37329,-12.99964 -33.95031,-69.08868 -7.47608,1.90057 -14.96699,0.0594 -4.68089,-0.91688 -3.4361,-1.54583 -8.44489,-6.51466 -5.00878,-4.96883 1.03567,-8.42316 10.73343,-5.4473 13.44406,4.12546 37.05174,24.90222 37.05174,24.90222 z"
           sodipodi:nodetypes="csccsc" />
        <path
           style="fill:#adc9b2;fill-opacity:1;stroke:#adc9b2;stroke-width:2;stroke-linecap:round;stroke-linejoin:round;stroke-miterlimit:4;stroke-dasharray:none;stroke-opacity:1"
           d="m 76.729167,167.35417 c 4.724733,-8.23797 13.145588,-14.26042 22.46846,-16.06908 4.901093,-0.95082 9.978043,-0.78953 14.846753,-1.89427 1.91716,-0.43502 3.8406,-1.09254 5.34036,-2.36356 0.74988,-0.6355 1.38155,-1.42077 1.78216,-2.31838 0.40061,-0.89761 0.56333,-1.90975 0.40003,-2.87904 -0.18807,-1.11636 -0.80465,-2.14037 -1.64518,-2.89874 -0.84054,-0.75838 -1.89512,-1.25944 -2.99591,-1.5238 -2.20159,-0.52871 -4.51577,-0.13035 -6.71142,0.4225 -14.989973,3.77441 -27.863387,15.12506 -33.485253,29.52437 z"
           id="path842-0-1"
           inkscape:connector-curvature="0"
           inkscape:path-effect="#path-effect844-7-4"
           inkscape:original-d="m 76.729167,167.35417 c 0,0 17.81198,-2.28938 22.46846,-16.06908 24.644183,-72.928279 7.660163,0.90871 14.846753,-1.89427 4.52121,-1.51988 3.205,-1.98101 7.52255,-7.56098 4.31752,-5.57996 -2.12601,-8.21598 -11.35251,-4.00004 -12.790733,5.84458 -33.485253,29.52437 -33.485253,29.52437 z"
           sodipodi:nodetypes="csccsc" />
      </g>
      <g
         transform="translate(-2.1418593)"
         id="g1027">
        <circle
           style="fill:#ffffff;fill-opacity:1;stroke:none;stroke-width:5.15777349;stroke-linecap:round;stroke-linejoin:round;stroke-miterlimit:4;stroke-dasharray:none;stroke-opacity:1"
           id="path982"
           cx="119.60909"
           cy="195.13681"
           r="34.11652" />
        <path
           style="fill:none;stroke:#7f969c;stroke-width:7.47310019;stroke-linecap:round;stroke-linejoin:round;stroke-miterlimit:4;stroke-dasharray:none;stroke-opacity:1"
           d="M 119.12359,195.12798 V 170.41226"
           id="path984"
           inkscape:connector-curvature="0"
           inkscape:path-effect="#path-effect986"
           inkscape:original-d="m 119.12359,195.12798 c 2.5e-4,-9.06268 2.5e-4,-15.65354 0,-24.71572"
           sodipodi:nodetypes="cc" />
        <path
           style="fill:none;stroke:#7f969c;stroke-width:7.47310019;stroke-linecap:round;stroke-linejoin:round;stroke-miterlimit:4;stroke-dasharray:none;stroke-opacity:1"
           d="m 119.12359,195.62229 19.77258,14.82944"
           id="path984-7"
           inkscape:connector-curvature="0"
           inkscape:path-effect="#path-effect986-6"
           inkscape:original-d="m 119.12359,195.62229 c 7.25,5.4378 12.52269,9.39232 19.77258,14.82944"
           sodipodi:nodetypes="cc" />
      </g>
    </g>
    <rect
       style="fill:#ffffff;fill-opacity:0;stroke:none;stroke-width:6.71052647;stroke-linecap:round;stroke-linejoin:round;stroke-miterlimit:4;stroke-dasharray:none;stroke-opacity:1"
       id="rect1029"
       width="136.30745"
       height="136.30745"
       x="24.054256"
       y="93.340622" />
  </g>
</svg>
